<svg xmlns="http://www.w3.org/2000/svg" viewBox="0 0 520 48" fill="none">
  <!-- Star/pinwheel mark -->
  <g transform="translate(0, 0)">
    <path d="M24 0c0 6.6-2.7 12.6-7 17-4.4 4.3-10.4 7-17 7v-8c8.8 0 16-7.2 16-16h8z" fill="#E8670A"/>
    <path d="M48 0h-8c0 8.8-7.2 16-16 16v8c6.6 0 12.6-2.7 17-7 4.3-4.4 7-10.4 7-17z" fill="#E8670A"/>
    <path d="M24 48c0-6.6 2.7-12.6 7-17 4.4-4.3 10.4-7 17-7v8c-8.8 0-16 7.2-16 16h-8z" fill="#E8670A"/>
    <path d="M0 48h8c0-8.8 7.2-16 16-16v-8c-6.6 0-12.6 2.7-17 7-4.3 4.4-7 10.4-7 17z" fill="#E8670A"/>
  </g>
  <!-- L -->
  <path d="M68 4h7v34h18v6H68V4z" fill="#E8E2D9"/>
  <!-- O -->
  <path d="M97 4h22c6 0 10 4 10 10v20c0 6-4 10-10 10H97c-6 0-10-4-10-10V14c0-6 4-10 10-10zm3 6c-2 0-3 1-3 3v22c0 2 1 3 3 3h16c2 0 3-1 3-3V13c0-2-1-3-3-3h-16z" fill="#E8E2D9"/>
  <!-- N -->
  <path d="M135 4h7l20 30V4h7v40h-7l-20-30v30h-7V4z" fill="#E8E2D9"/>
  <!-- G -->
  <path d="M181 4h22c6 0 10 4 10 10v3h-7v-4c0-2-1-3-3-3h-16c-2 0-3 1-3 3v22c0 2 1 3 3 3h16c2 0 3-1 3-3V28h-12v-6h19v16c0 6-4 10-10 10h-22c-6 0-10-4-10-10V14c0-6 4-10 10-10z" fill="#E8E2D9"/>
  <!-- E -->
  <path d="M220 4h32v6h-25v11h20v6h-20v11h25v6h-32V4z" fill="#E8E2D9"/>
  <!-- N -->
  <path d="M260 4h7l20 30V4h7v40h-7l-20-30v30h-7V4z" fill="#E8E2D9"/>
  <!-- T -->
  <path d="M302 4h32v6h-12.5v34h-7V10H302V4z" fill="#E8E2D9"/>
  <!-- I -->
  <path d="M340 4h7v40h-7V4z" fill="#E8E2D9"/>
  <!-- S -->
  <path d="M359 14c0-6 4-10 10-10h18c6 0 10 4 10 10v5h-7v-6c0-2-1-3-3-3h-12c-2 0-3 1-3 3v6c0 2 1 3 3 3h12c6 0 10 4 10 10v5c0 6-4 10-10 10h-18c-6 0-10-4-10-10v-5h7v6c0 2 1 3 3 3h12c2 0 3-1 3-3v-6c0-2-1-3-3-3h-12c-6 0-10-4-10-10v-5z" fill="#E8E2D9"/>
</svg>