<svg xmlns="http://www.w3.org/2000/svg" viewBox="0 0 1200 630" fill="none">
  <rect width="1200" height="630" fill="#06081a"/>
  <rect width="1200" height="630" fill="url(#bg)" opacity="0.4"/>
  <defs>
    <linearGradient id="bg" x1="0" y1="0" x2="1200" y2="630">
      <stop offset="0%" stop-color="#1B2B4B"/>
      <stop offset="100%" stop-color="#06081a"/>
    </linearGradient>
  </defs>
  <!-- Star mark — large centered -->
  <g transform="translate(540, 120) scale(2.5)">
    <path d="M24 0c0 6.6-2.7 12.6-7 17-4.4 4.3-10.4 7-17 7v-8c8.8 0 16-7.2 16-16h8z" fill="#E8670A"/>
    <path d="M48 0h-8c0 8.8-7.2 16-16 16v8c6.6 0 12.6-2.7 17-7 4.3-4.4 7-10.4 7-17z" fill="#E8670A"/>
    <path d="M24 48c0-6.6 2.7-12.6 7-17 4.4-4.3 10.4-7 17-7v8c-8.8 0-16 7.2-16 16h-8z" fill="#E8670A"/>
    <path d="M0 48h8c0-8.8 7.2-16 16-16v-8c-6.6 0-12.6 2.7-17 7-4.3 4.4-7 10.4-7 17z" fill="#E8670A"/>
  </g>
  <!-- LONGENTIS — path letters centered -->
  <g transform="translate(345, 360) scale(2.2)">
    <path d="M0 4h7v34h18v6H0V4z" fill="#E8E2D9"/>
    <path d="M29 4h22c6 0 10 4 10 10v20c0 6-4 10-10 10H29c-6 0-10-4-10-10V14c0-6 4-10 10-10zm3 6c-2 0-3 1-3 3v22c0 2 1 3 3 3h16c2 0 3-1 3-3V13c0-2-1-3-3-3H32z" fill="#E8E2D9"/>
    <path d="M67 4h7l20 30V4h7v40h-7L74 14v30h-7V4z" fill="#E8E2D9"/>
    <path d="M113 4h22c6 0 10 4 10 10v3h-7v-4c0-2-1-3-3-3h-16c-2 0-3 1-3 3v22c0 2 1 3 3 3h16c2 0 3-1 3-3V28h-12v-6h19v16c0 6-4 10-10 10h-22c-6 0-10-4-10-10V14c0-6 4-10 10-10z" fill="#E8E2D9"/>
    <path d="M152 4h32v6h-25v11h20v6h-20v11h25v6h-32V4z" fill="#E8E2D9"/>
    <path d="M192 4h7l20 30V4h7v40h-7l-20-30v30h-7V4z" fill="#E8E2D9"/>
    <path d="M234 4h32v6h-12.5v34h-7V10H234V4z" fill="#E8E2D9"/>
    <path d="M272 4h7v40h-7V4z" fill="#E8E2D9"/>
    <path d="M291 14c0-6 4-10 10-10h18c6 0 10 4 10 10v5h-7v-6c0-2-1-3-3-3h-12c-2 0-3 1-3 3v6c0 2 1 3 3 3h12c6 0 10 4 10 10v5c0 6-4 10-10 10h-18c-6 0-10-4-10-10v-5h7v6c0 2 1 3 3 3h12c2 0 3-1 3-3v-6c0-2-1-3-3-3h-12c-6 0-10-4-10-10v-5z" fill="#E8E2D9"/>
  </g>
  <!-- Tagline -->
  <g transform="translate(600, 490)">
    <line x1="-200" y1="0" x2="-30" y2="0" stroke="#C5CDE0" stroke-opacity="0.15" stroke-width="1"/>
    <line x1="30" y1="0" x2="200" y2="0" stroke="#C5CDE0" stroke-opacity="0.15" stroke-width="1"/>
  </g>
  <!-- Stats dots at bottom -->
  <g transform="translate(600, 560)">
    <circle cx="-180" cy="0" r="2" fill="#E8670A" opacity="0.4"/>
    <circle cx="-60" cy="0" r="2" fill="#E8670A" opacity="0.4"/>
    <circle cx="60" cy="0" r="2" fill="#E8670A" opacity="0.4"/>
    <circle cx="180" cy="0" r="2" fill="#E8670A" opacity="0.4"/>
  </g>
</svg>