<svg xmlns="http://www.w3.org/2000/svg" viewBox="0 0 1200 630" fill="none">
  <!-- Background -->
  <rect width="1200" height="630" fill="#06081a"/>
  <!-- Subtle gradient -->
  <rect width="1200" height="630" fill="url(#bg)" opacity="0.4"/>
  <defs>
    <linearGradient id="bg" x1="0" y1="0" x2="1200" y2="630">
      <stop offset="0%" stop-color="#1B2B4B"/>
      <stop offset="100%" stop-color="#06081a"/>
    </linearGradient>
  </defs>
  <!-- Star mark — large, centered top -->
  <g transform="translate(540, 140) scale(2.5)">
    <path d="M24 0c0 6.6-2.7 12.6-7 17-4.4 4.3-10.4 7-17 7v-8c8.8 0 16-7.2 16-16h8z" fill="#E8670A"/>
    <path d="M48 0h-8c0 8.8-7.2 16-16 16v8c6.6 0 12.6-2.7 17-7 4.3-4.4 7-10.4 7-17z" fill="#E8670A"/>
    <path d="M24 48c0-6.6 2.7-12.6 7-17 4.4-4.3 10.4-7 17-7v8c-8.8 0-16 7.2-16 16h-8z" fill="#E8670A"/>
    <path d="M0 48h8c0-8.8 7.2-16 16-16v-8c-6.6 0-12.6 2.7-17 7-4.3 4.4-7 10.4-7 17z" fill="#E8670A"/>
  </g>
  <!-- LONGENTIS -->
  <text x="600" y="420" text-anchor="middle" font-family="'Bebas Neue', 'Inter Tight', Arial, sans-serif" font-size="80" font-weight="400" letter-spacing="12" fill="#E8E2D9">LONGENTIS</text>
  <!-- Tagline -->
  <text x="600" y="480" text-anchor="middle" font-family="'Inter', Arial, sans-serif" font-size="20" font-weight="300" letter-spacing="4" fill="#C5CDE0" opacity="0.5">CLINIC-GRADE MEN'S HEALTH, DELIVERED</text>
  <!-- Stats bar -->
  <text x="600" y="560" text-anchor="middle" font-family="'JetBrains Mono', monospace" font-size="11" letter-spacing="3" fill="#C5CDE0" opacity="0.25">10,000+ PATIENTS  ·  SINCE 2015  ·  ALL 50 STATES</text>
</svg>